<?xml version="1.0" encoding="UTF-8" standalone="no"?>
<!-- Created with Inkscape (http://www.inkscape.org/) -->
<svg
   xmlns:svg="http://www.w3.org/2000/svg"
   xmlns="http://www.w3.org/2000/svg"
   version="1.0"
   width="180"
   height="185"
   id="svg2">
  <defs
     id="defs5" />
  <path
     d="M 177.79221,97.905846 A 88.495674,90.297623 0 1 1 0.80086517,97.905846 A 88.495674,90.297623 0 1 1 177.79221,97.905846 z"
     transform="matrix(0.9185521,0,0,0.9756098,2.4678186,-3.0179021)"
     id="path2389"
     style="fill:#000000;fill-opacity:0.2" />
  <path
     d="M 177.79221,97.905846 A 88.495674,90.297623 0 1 1 0.80086517,97.905846 A 88.495674,90.297623 0 1 1 177.79221,97.905846 z"
     transform="matrix(0.9117648,0,0,0.9756098,15.287116,-3.4183305)"
     id="path2385"
     style="fill:#00f000;fill-opacity:1" />
  <path
     d="M 160.5736,91.298703 C 160.5736,130.22163 131.79917,161.77489 96.304106,161.77489 C 60.809055,161.77489 32.034628,130.22163 32.034628,91.298703 C 32.034628,52.375777 60.809055,20.82251 96.304106,20.82251 C 131.79917,20.82251 160.5736,52.375777 160.5736,91.298703 L 160.5736,91.298703 z"
     id="path2384"
     style="fill:#ffffff;fill-opacity:1" />
  <path
     d="M 139.35066,91.09848 C 139.35066,116.4205 120.16771,136.94805 96.504333,136.94805 C 72.840962,136.94805 53.658008,116.4205 53.658008,91.09848 C 53.658008,65.776463 72.840962,45.248913 96.504333,45.248913 C 120.16771,45.248913 139.35066,65.776463 139.35066,91.09848 z"
     id="path2386"
     style="fill:#00f000;fill-opacity:1" />
</svg>
